<?xml version="1.0" encoding="utf-8"?>
<!-- Generator: Adobe Illustrator 27.1.1, SVG Export Plug-In . SVG Version: 6.00 Build 0)  -->
<svg version="1.1" baseProfile="tiny" id="Camada_1"
	 xmlns="http://www.w3.org/2000/svg" xmlns:xlink="http://www.w3.org/1999/xlink" x="0px" y="0px" width="584.7px" height="340.6px"
	 viewBox="0 0 584.7 340.6" overflow="visible" xml:space="preserve">
<path fill-rule="evenodd" fill="#FFFFFF" d="M94.5,146.5c20.5,0,39.5,6.6,55,17.7v36.5c-12.4-16.9-32.4-27.9-55-27.9
	c-37.7,0-68.2,30.6-68.2,68.2c0,37.7,30.6,68.2,68.2,68.2c36.3,0,65.9-28.3,68.1-64h0.1v-2.4c0-0.6,0-1.2,0-1.8
	c0-88.5,0-152.5,0-241h26.4v245.2h-0.3c-2.2,50.2-43.6,90.3-94.4,90.3C42.3,335.4,0,293.1,0,241C0,188.8,42.3,146.5,94.5,146.5"/>
<path fill-rule="evenodd" fill="#F7C200" d="M225.9,0h-26.3v153.7h0.2c1.7,37.9,32.4,68.2,71.3,68.2c38.9,0,71.4-32,71.4-71.4
	c0-30.6-25-56.7-50.1-66.8v27.1c14.1,7.6,23.7,22.5,23.7,39.6c0,24.8-20.1,45-45,45c-24.8,0-45-20.1-45-45
	C226,83.6,225.9,66.8,225.9,0"/>
<path fill="#FFFFFF" d="M402.6,305.5h-37.5c-2.3,0-4.2-0.8-5.9-2.5c-1.6-1.6-2.5-3.6-2.5-5.9v-41.6c0-2.3,0.8-4.2,2.5-5.9
	c1.6-1.6,3.6-2.5,5.9-2.5h37.5v11.7h-33.3v11.3h33.3v11.7h-33.3v12h33.3V305.5z M351.6,247.2l-23.3,58.3h-15.8l-23.3-58.3h14.2
	l17,42.8l17-42.8H351.6z M284,305.5h-12.5v-58.3H284V305.5z M248.6,293.9v-35h-25v35H248.6z M261.1,297.2c0,2.3-0.8,4.2-2.5,5.9
	c-1.6,1.6-3.6,2.5-5.9,2.5h-41.6v-58.3h41.6c2.3,0,4.2,0.8,5.9,2.5c1.6,1.6,2.5,3.6,2.5,5.9V297.2z"/>
<path fill="#F7C200" d="M534.5,305.5H577v-36.9h-27.1v8.4h15.6c0.1,0,0.1,0,0.2,0c1.1,0,2,0.9,2,2v16c0,1.1-0.9,2-2,2H539
	c-1.1,0-2-0.9-2-2v-37.4c0-1.1,0.9-2,2-2h38v-8.4h-42.5v0c-1.4,0-2.6,0.3-3.6,1c-0.2,0.1-0.4,0.3-0.6,0.5c-0.2,0.1-0.3,0.3-0.5,0.5
	c0,0-0.1,0.1-0.1,0.1l0,0c-0.7,0.7-1.2,1.4-1.5,2.2c-0.3,0.8-0.5,1.7-0.5,2.6v44.5c0,1,0.2,1.8,0.5,2.6c0.3,0.8,0.8,1.5,1.5,2.2l0,0
	l0,0c0.5,0.5,1.1,1,1.7,1.3c0,0,0.1,0,0.1,0.1c0.1,0.1,0.3,0.1,0.4,0.2C532.7,305.3,533.6,305.5,534.5,305.5L534.5,305.5
	L534.5,305.5z M509,257.7v37.4c0,1.1-0.9,2-2,2h-26.7c-1.1,0-2-0.9-2-2v-37.4c0-1.1,0.9-2,2-2H507C508.1,255.7,509,256.6,509,257.7z
	 M517.8,301.2c0.3-0.8,0.5-1.7,0.5-2.6v-44.5c0-1-0.2-1.8-0.5-2.6c-0.3-0.8-0.8-1.5-1.4-2.1c0,0-0.1-0.1-0.1-0.1
	c-0.5-0.5-1-0.9-1.5-1.2c-0.2-0.1-0.5-0.3-0.8-0.4c-0.8-0.3-1.7-0.5-2.6-0.5v0h0v0h-35.6c-1.4,0-2.6,0.3-3.6,1
	c-0.2,0.1-0.4,0.3-0.6,0.5c-0.2,0.1-0.3,0.3-0.5,0.5c0,0-0.1,0.1-0.1,0.1l0,0c-0.7,0.7-1.2,1.4-1.5,2.2c-0.3,0.8-0.5,1.7-0.5,2.6
	v44.5c0,1,0.2,1.8,0.5,2.6c0.3,0.8,0.8,1.5,1.5,2.2l0,0l0,0c0.5,0.5,1.1,1,1.7,1.3c0,0,0.1,0,0.1,0.1c0.1,0.1,0.3,0.1,0.4,0.2
	c0.8,0.3,1.7,0.5,2.6,0.5v0h0v0h35.6v0c1,0,1.8-0.2,2.6-0.5c0.8-0.3,1.5-0.8,2.2-1.5l0,0l0,0C516.9,302.8,517.5,302.1,517.8,301.2z
	 M421.5,305.5h38v-8.4h-33.4c-0.1,0-0.1,0-0.2,0c-1.1,0-2-0.9-2-2v-47.8h-9.3v51.4c0,1,0.2,1.8,0.5,2.6c0.3,0.8,0.8,1.5,1.5,2.2l0,0
	l0,0c0.5,0.5,1.1,1,1.7,1.3c0,0,0.1,0,0.1,0.1c0.1,0.1,0.3,0.1,0.4,0.2C419.7,305.3,420.6,305.5,421.5,305.5L421.5,305.5
	L421.5,305.5z"/>
<path fill="#A1ABBA" d="M217.4,329.9c0,0.5,0.1,0.9,0.4,1.3c0.2,0.4,0.5,0.6,0.9,0.8c0.4,0.2,0.8,0.4,1.2,0.4s0.9,0.1,1.4,0.1
	c1,0,1.8-0.2,2.4-0.5s0.9-0.9,0.9-1.5c0-0.5-0.2-0.9-0.6-1.2c-0.4-0.3-0.9-0.5-1.7-0.6l-2.7-0.5c-0.4-0.1-0.9-0.2-1.2-0.3
	c-0.4-0.1-0.8-0.3-1.1-0.5c-0.4-0.2-0.7-0.5-0.9-0.9s-0.3-0.8-0.3-1.4c0-1.1,0.4-2,1.3-2.7c0.8-0.7,2-1,3.5-1c0.7,0,1.3,0.1,1.8,0.2
	c0.6,0.1,1.1,0.4,1.6,0.6c0.5,0.3,0.9,0.7,1.2,1.2c0.3,0.5,0.5,1.1,0.5,1.8h-1.8c-0.1-0.3-0.1-0.6-0.2-0.8c-0.1-0.2-0.3-0.5-0.6-0.7
	c-0.3-0.2-0.6-0.4-1.1-0.5s-1-0.2-1.7-0.2c-0.4,0-0.7,0-1,0.1c-0.3,0.1-0.6,0.2-0.9,0.4c-0.3,0.2-0.5,0.4-0.6,0.6
	c-0.2,0.3-0.3,0.6-0.3,0.9c0,0.4,0.2,0.7,0.5,1c0.3,0.3,0.8,0.5,1.5,0.6l2.9,0.5h0c0.4,0.1,0.8,0.2,1.1,0.3c0.4,0.1,0.7,0.3,1.1,0.5
	c0.4,0.2,0.7,0.5,1,0.9s0.4,0.9,0.4,1.4c0,0.7-0.2,1.3-0.4,1.8c-0.3,0.5-0.7,0.9-1.2,1.2c-0.5,0.3-1.1,0.5-1.7,0.7
	c-0.6,0.1-1.2,0.2-1.9,0.2c-0.7,0-1.4-0.1-2-0.2c-0.7-0.2-1.2-0.4-1.7-0.7s-0.9-0.8-1.2-1.3c-0.3-0.6-0.5-1.2-0.5-2H217.4z"/>
<path fill="#A1ABBA" d="M233.2,325.5c0.3-0.7,0.6-1.4,1.2-2c0.5-0.6,1.2-1.1,2.1-1.4c0.9-0.4,1.8-0.5,3-0.5c1.2,0,2.2,0.2,3,0.5
	c0.9,0.4,1.5,0.8,2.1,1.4c0.5,0.6,0.9,1.3,1.2,2c0.3,0.8,0.4,1.5,0.4,2.3s-0.1,1.6-0.4,2.3c-0.3,0.8-0.7,1.4-1.2,2
	c-0.5,0.6-1.2,1.1-2.1,1.4c-0.9,0.4-1.9,0.5-3,0.5c-1.2,0-2.2-0.2-3-0.5c-0.9-0.4-1.6-0.8-2.1-1.4c-0.5-0.6-0.9-1.3-1.2-2
	c-0.3-0.7-0.4-1.5-0.4-2.3S232.9,326.2,233.2,325.5z M243,324.3c-0.9-0.8-2.1-1.2-3.5-1.2c-1.4,0-2.6,0.4-3.5,1.2
	c-0.9,0.8-1.4,2-1.4,3.5c0,1.5,0.5,2.7,1.4,3.5c0.9,0.8,2.1,1.2,3.5,1.2c1.4,0,2.6-0.4,3.5-1.2c0.9-0.8,1.4-2,1.4-3.5
	C244.3,326.3,243.9,325.1,243,324.3z"/>
<polygon fill="#A1ABBA" points="253.7,321.8 255.5,321.8 255.5,332.3 262.8,332.3 262.8,333.8 253.7,333.8 "/>
<path fill="#A1ABBA" d="M269.8,321.8h1.8v7.7c0,1,0.3,1.8,1,2.3c0.6,0.5,1.5,0.8,2.7,0.8s2-0.3,2.7-0.8c0.6-0.5,1-1.3,1-2.3v-7.7
	h1.8v7.5c0,3.2-1.8,4.8-5.4,4.8s-5.4-1.6-5.4-4.8V321.8z"/>
<path fill="#A1ABBA" d="M300.5,329.2c-0.1,0.6-0.2,1.2-0.5,1.8c-0.3,0.6-0.7,1.1-1.1,1.5c-0.5,0.5-1,0.8-1.7,1.1
	c-0.7,0.3-1.4,0.5-2.1,0.5l-0.4,0.7c0.1,0,0.1,0,0.2,0c0.2,0,0.3,0,0.4,0c0.4,0,0.8,0.1,1.1,0.3c0.3,0.2,0.4,0.5,0.4,0.8
	c0,0.5-0.2,0.8-0.6,1.1c-0.4,0.2-0.9,0.4-1.4,0.4c-0.4,0-1-0.1-1.8-0.2l0.2-0.8c0.2,0.1,0.4,0.1,0.6,0.2c0.2,0.1,0.5,0.1,0.7,0.1
	c0.3,0,0.5-0.1,0.6-0.1c0.2-0.1,0.3-0.2,0.3-0.4c0-0.1-0.1-0.2-0.2-0.3s-0.3-0.2-0.5-0.2c-0.2,0-0.5,0-0.8,0.1l-0.3-0.3l0.7-1.1
	c-0.8,0-1.5-0.2-2.2-0.4c-0.7-0.3-1.3-0.6-1.9-1.1c-0.6-0.5-1-1.2-1.4-1.9c-0.3-0.8-0.5-1.7-0.5-2.8c0-0.9,0.1-1.7,0.4-2.5
	c0.3-0.8,0.7-1.4,1.2-2c0.5-0.6,1.2-1,2-1.3c0.8-0.3,1.7-0.5,2.7-0.5c0.7,0,1.3,0.1,2,0.2c0.7,0.2,1.3,0.4,1.9,0.8
	c0.6,0.4,1.1,0.8,1.5,1.4c0.4,0.6,0.6,1.3,0.7,2.2h-1.8c-0.2-0.9-0.6-1.6-1.3-2.2c-0.7-0.6-1.6-0.9-2.8-0.9c-1.5,0-2.6,0.4-3.4,1.2
	c-0.8,0.8-1.2,2.1-1.2,3.7c0,0.6,0.1,1.2,0.3,1.7c0.2,0.6,0.4,1,0.8,1.5c0.4,0.4,0.8,0.8,1.4,1c0.6,0.3,1.3,0.4,2.1,0.4
	c1.1,0,2-0.3,2.7-0.8c0.7-0.6,1.2-1.4,1.5-2.5H300.5z"/>
<path fill="#A1ABBA" d="M307.9,325.5c0.3-0.7,0.6-1.4,1.2-2c0.5-0.6,1.2-1.1,2.1-1.4c0.9-0.4,1.8-0.5,3-0.5s2.2,0.2,3,0.5
	c0.9,0.4,1.5,0.8,2.1,1.4c0.5,0.6,0.9,1.3,1.2,2c0.3,0.8,0.4,1.5,0.4,2.3s-0.1,1.6-0.4,2.3c-0.3,0.8-0.7,1.4-1.2,2
	c-0.5,0.6-1.2,1.1-2.1,1.4c-0.9,0.4-1.9,0.5-3,0.5s-2.2-0.2-3-0.5c-0.9-0.4-1.6-0.8-2.1-1.4c-0.5-0.6-0.9-1.3-1.2-2
	c-0.3-0.7-0.4-1.5-0.4-2.3S307.6,326.2,307.9,325.5z M317.7,324.3c-0.9-0.8-2.1-1.2-3.5-1.2s-2.6,0.4-3.5,1.2
	c-0.9,0.8-1.4,2-1.4,3.5c0,1.5,0.5,2.7,1.4,3.5c0.9,0.8,2.1,1.2,3.5,1.2s2.6-0.4,3.5-1.2c0.9-0.8,1.4-2,1.4-3.5
	C319.1,326.3,318.6,325.1,317.7,324.3z M310.8,320.9c0.1-0.6,0.3-1.1,0.6-1.5s0.8-0.6,1.3-0.6c0.5,0,1,0.1,1.6,0.4
	c0.6,0.2,1,0.4,1.3,0.4c0.2,0,0.4-0.1,0.5-0.2c0.1-0.1,0.2-0.3,0.3-0.6h1c-0.1,0.6-0.3,1.1-0.6,1.5s-0.8,0.6-1.3,0.6
	c-0.5,0-1-0.1-1.6-0.4c-0.6-0.2-1-0.4-1.3-0.4c-0.2,0-0.4,0.1-0.5,0.2c-0.1,0.1-0.2,0.3-0.3,0.6H310.8z"/>
<polygon fill="#A1ABBA" points="328.4,321.8 338,321.8 338,323.4 330.2,323.4 330.2,326.8 337.8,326.8 337.8,328.4 330.2,328.4 
	330.2,332.3 338.2,332.3 338.2,333.8 328.4,333.8 "/>
<path fill="#A1ABBA" d="M346.6,329.9c0,0.5,0.1,0.9,0.4,1.3s0.5,0.6,0.9,0.8c0.4,0.2,0.8,0.4,1.2,0.4c0.5,0.1,0.9,0.1,1.4,0.1
	c1,0,1.8-0.2,2.4-0.5c0.6-0.4,0.9-0.9,0.9-1.5c0-0.5-0.2-0.9-0.6-1.2c-0.4-0.3-0.9-0.5-1.7-0.6l-2.7-0.5c-0.4-0.1-0.9-0.2-1.2-0.3
	c-0.4-0.1-0.8-0.3-1.1-0.5c-0.4-0.2-0.7-0.5-0.9-0.9s-0.3-0.8-0.3-1.4c0-1.1,0.4-2,1.3-2.7c0.8-0.7,2-1,3.5-1c0.7,0,1.3,0.1,1.8,0.2
	c0.6,0.1,1.1,0.4,1.6,0.6c0.5,0.3,0.9,0.7,1.2,1.2c0.3,0.5,0.5,1.1,0.5,1.8h-1.8c-0.1-0.3-0.1-0.6-0.2-0.8c-0.1-0.2-0.3-0.5-0.6-0.7
	c-0.3-0.2-0.6-0.4-1.1-0.5c-0.5-0.1-1-0.2-1.7-0.2c-0.4,0-0.7,0-1,0.1c-0.3,0.1-0.6,0.2-0.9,0.4c-0.3,0.2-0.5,0.4-0.6,0.6
	c-0.2,0.3-0.3,0.6-0.3,0.9c0,0.4,0.2,0.7,0.5,1c0.3,0.3,0.8,0.5,1.5,0.6l2.9,0.5h0c0.4,0.1,0.8,0.2,1.1,0.3c0.4,0.1,0.7,0.3,1.1,0.5
	s0.7,0.5,1,0.9c0.3,0.4,0.4,0.9,0.4,1.4c0,0.7-0.2,1.3-0.4,1.8c-0.3,0.5-0.7,0.9-1.2,1.2c-0.5,0.3-1.1,0.5-1.7,0.7
	c-0.6,0.1-1.2,0.2-1.9,0.2c-0.7,0-1.4-0.1-2-0.2c-0.7-0.2-1.2-0.4-1.7-0.7s-0.9-0.8-1.2-1.3c-0.3-0.6-0.5-1.2-0.5-2H346.6z"/>
<polygon fill="#A1ABBA" points="379.5,321.8 389.1,321.8 389.1,323.4 381.3,323.4 381.3,326.8 388.9,326.8 388.9,328.4 381.3,328.4 
	381.3,332.3 389.3,332.3 389.3,333.8 379.5,333.8 "/>
<polygon fill="#A1ABBA" points="409,321.8 411.5,321.8 411.5,333.8 409.7,333.8 409.7,323.9 409.6,323.9 405,333.8 403.4,333.8 
	398.7,324.1 398.7,324.1 398.7,333.8 396.9,333.8 396.9,321.8 399.4,321.8 404.2,331.8 "/>
<polygon fill="#A1ABBA" points="436.6,321.8 438.3,321.8 438.3,332.3 445.6,332.3 445.6,333.8 436.6,333.8 "/>
<path fill="#A1ABBA" d="M452.4,325.5c0.3-0.7,0.6-1.4,1.2-2c0.5-0.6,1.2-1.1,2.1-1.4c0.9-0.4,1.8-0.5,3-0.5c1.2,0,2.2,0.2,3,0.5
	c0.9,0.4,1.5,0.8,2.1,1.4c0.5,0.6,0.9,1.3,1.2,2c0.3,0.8,0.4,1.5,0.4,2.3s-0.1,1.6-0.4,2.3c-0.3,0.8-0.7,1.4-1.2,2
	c-0.5,0.6-1.2,1.1-2.1,1.4c-0.9,0.4-1.9,0.5-3,0.5c-1.2,0-2.2-0.2-3-0.5c-0.9-0.4-1.6-0.8-2.1-1.4c-0.5-0.6-0.9-1.3-1.2-2
	c-0.3-0.7-0.4-1.5-0.4-2.3S452.2,326.2,452.4,325.5z M462.2,324.3c-0.9-0.8-2.1-1.2-3.5-1.2c-1.4,0-2.6,0.4-3.5,1.2
	c-0.9,0.8-1.4,2-1.4,3.5c0,1.5,0.5,2.7,1.4,3.5c0.9,0.8,2.1,1.2,3.5,1.2c1.4,0,2.6-0.4,3.5-1.2c0.9-0.8,1.4-2,1.4-3.5
	C463.6,326.3,463.1,325.1,462.2,324.3z"/>
<path fill="#A1ABBA" d="M479.5,327.3h5.5v6.5h-1.3l-0.3-1.7c-0.2,0.3-0.5,0.5-0.7,0.7c-0.3,0.2-0.6,0.5-0.9,0.6
	c-0.4,0.2-0.8,0.4-1.3,0.5c-0.5,0.1-1,0.2-1.6,0.2c-1.1,0-2.1-0.2-2.9-0.6c-0.8-0.4-1.5-0.9-2-1.5c-0.5-0.6-0.9-1.2-1.1-2
	c-0.2-0.7-0.3-1.4-0.3-2.1c0-1.1,0.2-2.1,0.5-2.9c0.4-0.8,0.8-1.5,1.4-2c0.6-0.5,1.3-0.9,2-1.2c0.7-0.3,1.5-0.4,2.3-0.4
	c0.7,0,1.3,0.1,1.9,0.2c0.6,0.1,1.2,0.3,1.8,0.6c0.6,0.3,1,0.7,1.4,1.3c0.4,0.5,0.7,1.2,0.9,2h-1.9c-0.3-0.9-0.7-1.5-1.4-1.9
	c-0.7-0.4-1.5-0.6-2.7-0.6c-0.8,0-1.4,0.1-2,0.4c-0.6,0.3-1.1,0.6-1.4,1.1c-0.4,0.5-0.7,1-0.8,1.5c-0.2,0.6-0.3,1.2-0.3,1.8
	c0,0.8,0.1,1.5,0.4,2.1c0.2,0.6,0.6,1.1,1,1.5c0.4,0.4,0.9,0.7,1.5,0.8s1.2,0.3,1.8,0.3c1.3,0,2.3-0.3,3.1-1
	c0.8-0.7,1.3-1.6,1.3-2.7h-3.9V327.3z"/>
<path fill="#A1ABBA" d="M494.6,318.7h2.1l-2.2,2.4h-1.3L494.6,318.7z M493.3,321.8h1.8v12h-1.8V321.8z"/>
<path fill="#A1ABBA" d="M504.2,329.9c0,0.5,0.1,0.9,0.4,1.3s0.5,0.6,0.9,0.8c0.4,0.2,0.8,0.4,1.2,0.4s0.9,0.1,1.4,0.1
	c1,0,1.8-0.2,2.4-0.5s0.9-0.9,0.9-1.5c0-0.5-0.2-0.9-0.6-1.2c-0.4-0.3-0.9-0.5-1.7-0.6l-2.7-0.5c-0.4-0.1-0.9-0.2-1.2-0.3
	c-0.4-0.1-0.8-0.3-1.1-0.5c-0.4-0.2-0.7-0.5-0.9-0.9c-0.2-0.4-0.3-0.8-0.3-1.4c0-1.1,0.4-2,1.3-2.7c0.8-0.7,2-1,3.5-1
	c0.7,0,1.3,0.1,1.8,0.2c0.6,0.1,1.1,0.4,1.6,0.6c0.5,0.3,0.9,0.7,1.2,1.2c0.3,0.5,0.5,1.1,0.5,1.8h-1.8c-0.1-0.3-0.1-0.6-0.2-0.8
	c-0.1-0.2-0.3-0.5-0.6-0.7c-0.3-0.2-0.6-0.4-1.1-0.5s-1-0.2-1.7-0.2c-0.4,0-0.7,0-1,0.1c-0.3,0.1-0.6,0.2-0.9,0.4
	c-0.3,0.2-0.5,0.4-0.6,0.6c-0.2,0.3-0.3,0.6-0.3,0.9c0,0.4,0.2,0.7,0.5,1c0.3,0.3,0.8,0.5,1.5,0.6l2.9,0.5h0
	c0.4,0.1,0.8,0.2,1.1,0.3c0.4,0.1,0.7,0.3,1.1,0.5s0.7,0.5,1,0.9s0.4,0.9,0.4,1.4c0,0.7-0.2,1.3-0.4,1.8c-0.3,0.5-0.7,0.9-1.2,1.2
	c-0.5,0.3-1.1,0.5-1.7,0.7c-0.6,0.1-1.2,0.2-1.9,0.2c-0.7,0-1.4-0.1-2-0.2c-0.7-0.2-1.2-0.4-1.7-0.7c-0.5-0.3-0.9-0.8-1.2-1.3
	c-0.3-0.6-0.5-1.2-0.5-2H504.2z"/>
<polygon fill="#A1ABBA" points="523.5,323.4 519,323.4 519,321.8 529.8,321.8 529.8,323.4 525.3,323.4 525.3,333.8 523.5,333.8 "/>
<rect x="536.9" y="321.8" fill="#A1ABBA" width="1.8" height="12"/>
<path fill="#A1ABBA" d="M556.9,326.1c-0.2-0.9-0.6-1.6-1.3-2.2c-0.7-0.6-1.6-0.9-2.8-0.9c-1.5,0-2.6,0.4-3.4,1.2
	c-0.8,0.8-1.2,2.1-1.2,3.7c0,0.6,0.1,1.2,0.3,1.7c0.2,0.6,0.4,1,0.8,1.5c0.4,0.4,0.8,0.8,1.4,1c0.6,0.3,1.3,0.4,2.1,0.4
	c1.1,0,2-0.3,2.7-0.8c0.7-0.6,1.2-1.4,1.5-2.5h1.8c-0.1,0.7-0.3,1.3-0.6,1.9c-0.3,0.6-0.7,1.1-1.3,1.6s-1.1,0.8-1.8,1.1
	c-0.7,0.3-1.5,0.4-2.3,0.4c-0.8,0-1.6-0.1-2.3-0.4c-0.8-0.2-1.4-0.6-2-1.1c-0.6-0.5-1.1-1.2-1.4-2c-0.4-0.8-0.5-1.8-0.5-2.9
	c0-0.9,0.1-1.7,0.4-2.5c0.3-0.8,0.7-1.4,1.2-2c0.5-0.6,1.2-1,2-1.3s1.7-0.5,2.7-0.5c0.7,0,1.3,0.1,2,0.2c0.7,0.2,1.3,0.4,1.9,0.8
	c0.6,0.4,1.1,0.8,1.5,1.4c0.4,0.6,0.6,1.3,0.7,2.2H556.9z"/>
<path fill="#A1ABBA" d="M574.3,330.3h-5.9l-1.5,3.5H565l5.4-12h2l5.4,12h-2L574.3,330.3z M571.3,323.5l-2.3,5.3h4.6L571.3,323.5z"/>
</svg>
